<?xml version="1.0" encoding="UTF-8" standalone="no"?>
<!-- Created with Inkscape (http://www.inkscape.org/) -->

<svg
   xmlns:dc="http://purl.org/dc/elements/1.1/"
   xmlns:cc="http://creativecommons.org/ns#"
   xmlns:rdf="http://www.w3.org/1999/02/22-rdf-syntax-ns#"
   xmlns:svg="http://www.w3.org/2000/svg"
   xmlns="http://www.w3.org/2000/svg"
   xmlns:sodipodi="http://sodipodi.sourceforge.net/DTD/sodipodi-0.dtd"
   xmlns:inkscape="http://www.inkscape.org/namespaces/inkscape"
   width="64px"
   height="64px"
   id="svg2985"
   version="1.1"
   inkscape:version="0.48.3.1 r9886"
   sodipodi:docname="New document 2">
  <defs
     id="defs2987" />
  <sodipodi:namedview
     id="base"
     pagecolor="#ffffff"
     bordercolor="#666666"
     borderopacity="1.0"
     inkscape:pageopacity="0.0"
     inkscape:pageshadow="2"
     inkscape:zoom="5.5"
     inkscape:cx="0.18181818"
     inkscape:cy="32"
     inkscape:current-layer="layer1"
     showgrid="true"
     inkscape:document-units="px"
     inkscape:grid-bbox="true"
     inkscape:window-width="1366"
     inkscape:window-height="717"
     inkscape:window-x="0"
     inkscape:window-y="0"
     inkscape:window-maximized="1" />
  <metadata
     id="metadata2990">
    <rdf:RDF>
      <cc:Work
         rdf:about="">
        <dc:format>image/svg+xml</dc:format>
        <dc:type
           rdf:resource="http://purl.org/dc/dcmitype/StillImage" />
        <dc:title></dc:title>
      </cc:Work>
    </rdf:RDF>
  </metadata>
  <g
     id="layer1"
     inkscape:label="Layer 1"
     inkscape:groupmode="layer">
    <path
       style="fill:#000000;fill-opacity:1;stroke:none"
       id="path3781"
       d="m 6.7472525,4.4930345 c 0.7591516,0.3600048 1.5538655,0.6334858 2.3630981,0.8546047 1.5820454,0.4021104 3.2172314,0.5247464 4.8360884,0.6927864 2.074285,0.1868499 4.14946,0.3565116 6.218505,0.5960415 2.234444,0.2414593 4.470734,0.442091 6.694545,0.7702764 2.313444,0.3759945 4.620091,0.7827117 6.950335,1.0406627 1.464034,0.1476863 2.943636,0.1989928 4.413178,0.097969 0.700725,-0.048172 1.058272,-0.1177027 1.743402,-0.223647 1.658737,-0.295868 3.184112,-1.0071045 4.693991,-1.7226252 1.44364,-0.6620961 2.812902,-1.467721 4.217085,-2.2052801 0.842952,-0.4484131 1.72931,-0.8017375 2.630844,-1.1117889 0.600666,-0.1871271 1.167813,-0.4381108 1.727387,-0.723075 0.614165,-0.352692 1.195625,-0.7557873 1.78921,-1.1404584 0.518697,-0.3433838 1.073118,-0.6147068 1.66944,-0.79172272 0.431807,-0.15692873 0.898677,-0.26274379 1.338399,-0.0888769 0.337864,0.21800261 0.355594,0.59167188 0.371901,0.95719058 0.02627,0.770141 -0.131662,1.5289117 -0.28751,2.2785161 -0.331206,1.441946 -0.669052,2.8820808 -0.978291,4.3289561 -0.477738,2.1815655 -0.901921,4.3722495 -1.264754,6.5757635 -0.406172,2.600575 -0.616429,5.223201 -0.733252,7.850812 -0.08837,2.035179 -0.08444,4.071125 0.02444,6.104975 0.119585,1.712453 0.346924,3.414436 0.603156,5.11101 0.216096,1.365025 0.439779,2.727389 0.784749,4.066489 0.258939,1.000849 0.647015,1.960183 1.026311,2.919621 0.371162,0.862739 0.661421,1.753671 0.828976,2.67752 0.153951,1.08208 0.146382,2.17854 0.150236,3.269031 0.0056,1.190297 0.01516,2.379764 -0.04286,3.568873 -0.07678,0.922984 -0.185917,1.843197 -0.348785,2.75502 -0.132446,0.638039 -0.227785,1.282662 -0.276958,1.932358 -0.0035,1.000364 -0.335721,3.237486 -1.635479,2.706145 -0.47522,-0.204605 -0.940241,-0.425185 -1.424419,-0.609395 -0.904805,-0.330328 -1.789579,-0.71308 -2.673416,-1.09544 -1.34411,-0.630966 -2.723514,-1.027697 -4.163866,-1.365615 -2.009518,-0.479645 -4.061817,-0.718196 -6.111823,-0.943071 -2.467759,-0.285119 -4.951498,-0.287471 -7.428988,-0.171368 -2.524541,0.139823 -5.029037,0.486159 -7.509286,0.967695 -2.064591,0.380569 -4.093899,0.907546 -6.096155,1.533567 -1.198641,0.378356 -2.332882,0.905768 -3.431755,1.508614 -0.282236,0.166315 -0.576113,0.316129 -0.846505,0.502055 -0.259099,-0.09621 -0.255475,-0.169893 -0.274704,-0.404905 -0.01043,-0.127483 -0.04214,-0.302992 -0.06215,-0.425475 -0.20154,-0.917929 -0.392268,-1.838038 -0.621067,-2.749619 -0.486448,-1.749958 -1.100749,-3.46027 -1.67593,-5.182077 -0.116367,-0.350468 -0.232859,-0.700896 -0.349102,-1.051406 -0.239319,-0.721624 -0.492059,-1.458116 -0.696833,-2.190556 -0.322624,-1.153966 -0.550338,-2.320957 -0.75665,-3.499902 -0.350038,-2.425879 -0.313254,-4.875685 -0.156698,-7.313967 0.21483,-2.681768 0.604944,-5.344779 0.910903,-8.016684 0.219117,-1.838895 0.251724,-3.69132 0.280598,-5.540562 0,0 1.3569,-1.924276 1.3569,-1.924276 l 0,0 c -0.02902,1.856046 -0.05459,3.716027 -0.268301,5.562312 -0.293441,2.658562 -0.676953,5.307525 -0.893927,7.974245 -0.164134,2.423063 -0.209535,4.857323 0.117452,7.271099 0.199017,1.170117 0.417225,2.330069 0.736825,3.474746 0.198636,0.711433 0.462955,1.474355 0.699881,2.174034 0.117588,0.347256 0.236468,0.694072 0.354702,1.041108 0.589653,1.696726 1.210921,3.383068 1.752765,5.095981 0.251184,0.883696 0.453941,1.779682 0.69394,2.665978 0.189961,0.737516 -0.04076,-0.184945 0.08997,0.409815 0.05371,0.244351 0.06684,0.240502 -0.173571,0.131851 0.275258,-0.129538 0.543795,-0.273095 0.81759,-0.405621 1.101874,-0.550022 2.242784,-1.011362 3.422528,-1.369235 2.000954,-0.588795 4.029146,-1.070136 6.082439,-1.440735 2.49143,-0.456908 5.002242,-0.804796 7.533702,-0.940951 2.492553,-0.113264 4.990283,-0.107436 7.474356,0.160953 2.069652,0.207059 4.142658,0.424445 6.175212,0.882616 1.452265,0.317189 2.876644,0.712695 4.239179,1.31766 0.89045,0.361695 1.778231,0.73213 2.689966,1.037668 0.487559,0.168613 0.956265,0.381638 1.445089,0.545363 0.953745,0.114622 0.04778,-0.01705 -1.266635,2.302744 -0.01186,0.02094 0.0508,-0.0161 0.06164,-0.03759 0.05819,-0.115394 -0.03083,-0.30681 0.03198,-0.421377 0.0604,-0.667292 0.141312,-1.333097 0.282956,-1.988754 0.188183,-0.913254 0.293878,-1.838742 0.398564,-2.764732 0.07614,-1.19037 0.07728,-2.381233 0.06614,-3.573861 -0.01011,-1.070996 -0.0088,-2.14616 -0.139361,-3.210893 -0.146247,-0.915501 -0.411451,-1.802007 -0.779729,-2.653903 -0.386587,-0.973147 -0.775872,-1.948288 -1.036124,-2.964769 -0.341996,-1.358668 -0.566754,-2.73835 -0.778351,-4.122611 -0.24743,-1.713283 -0.475894,-3.429756 -0.599211,-5.15724 -0.114509,-2.059339 -0.108304,-4.120666 -0.0015,-6.180763 0.131906,-2.637312 0.342508,-5.269636 0.724301,-7.884006 0.338594,-2.173563 0.729009,-4.336626 1.186592,-6.488492 0.292321,-1.4212384 0.606046,-2.8374677 0.923797,-4.2532127 0.146163,-0.7156664 0.300142,-1.4408305 0.29037,-2.1745714 C 56.872398,3.4374506 56.912599,3.113205 56.758095,2.9074668 56.384952,2.755931 55.965492,2.9272562 55.605113,3.0378179 55.035051,3.2374065 54.503892,3.5158424 54.00162,3.8517596 53.402417,4.2389939 52.807015,4.6334939 52.185298,4.9842793 51.62123,5.2675409 51.037129,5.4882067 50.432959,5.6718893 49.55052,5.9669063 48.690922,6.322035 47.861458,6.7449506 46.46422,7.4522563 45.090435,8.206559 43.670621,8.8694908 42.141472,9.6004282 40.592899,10.323753 38.899828,10.578688 36.851603,10.842121 34.78341,10.820975 32.731022,10.588701 30.396958,10.324009 28.080533,9.9431285 25.762417,9.5656973 23.53992,9.2393652 21.304881,9.036218 19.070644,8.8075532 16.997033,8.5753796 14.917423,8.4147687 12.837624,8.2489941 11.194379,8.0978405 9.5385246,7.9846069 7.9253375,7.6190436 7.0922007,7.4148325 6.281599,7.1433774 5.4702333,6.8666871 c 0,0 1.2770192,-2.3736526 1.2770192,-2.3736526 z"
       inkscape:connector-curvature="0" />
    <path
       style="fill:#000000;fill-opacity:1;stroke:none"
       id="path3783"
       d="m 25.921216,13.464233 c -0.857923,0.715501 -1.469512,1.663703 -2.073413,2.590529 -0.480853,0.599131 -0.71768,1.356763 -1.173556,1.970449 -0.225323,0.303324 0.511507,-1.357926 0.563398,-0.983649 0.05567,0.401565 -0.371916,0.720567 -0.549333,1.085091 -0.499075,1.025408 -0.450857,0.955141 -0.852894,1.962168 -0.10284,0.399911 -0.683737,1.679037 0.08347,1.882734 0.367867,0.09767 0.903947,-0.07024 1.229022,-0.136724 0.320288,-0.108809 0.64625,-0.202164 0.960865,-0.326428 0.810632,-0.320178 1.681759,-0.764703 2.454116,-1.153931 1.465683,-0.738628 2.918106,-1.503445 4.38066,-2.248272 1.183202,-0.585151 2.345937,-1.236275 3.59373,-1.680539 0.166974,-0.05945 0.916293,-0.359949 1.192791,-0.149386 0.128965,0.09821 0.13314,0.295607 0.19971,0.443411 -0.08579,0.255846 -0.131258,0.528976 -0.257375,0.767539 -0.563284,1.065515 -1.171954,2.10735 -1.804712,3.133132 -0.284648,0.461451 -1.777494,2.411232 -2.02569,2.738071 -0.141143,0.185865 -2.464647,3.235166 -2.577841,3.383727 -0.693549,0.932076 -1.617179,2.146917 -2.273827,3.125298 -0.266245,0.396696 -0.545288,1.642047 -0.759943,1.215225 -0.218209,-0.43389 0.444408,-0.869715 0.739842,-1.255194 0.07573,-0.09881 -0.09135,0.248002 -0.06032,0.368558 0.01251,0.04858 0.09577,-0.02988 0.143658,-0.04482 0.181676,-0.08005 0.368347,-0.149599 0.545029,-0.240137 1.186272,-0.607886 2.30212,-1.360607 3.418254,-2.084437 4.097724,-2.657438 -1.136552,0.722626 3.146178,-2.039939 1.564247,-0.974318 3.113365,-1.978114 4.723754,-2.876183 0.543354,-0.303013 1.614242,-0.8796 2.258318,-1.093596 0.216456,-0.07192 0.448366,-0.08408 0.672549,-0.126123 0.12327,0.08967 0.323005,0.123939 0.369808,0.26901 0.177884,0.551364 -0.383423,1.390985 -0.589235,1.744655 -0.652609,1.121451 -1.306078,2.243498 -2.010635,3.333061 -0.400153,0.618817 -2.020245,2.654012 -2.42337,3.167865 -1.624057,2.115895 -3.452296,4.075852 -5.021148,6.23489 -0.224607,0.309102 -0.818815,1.289217 -0.635522,0.953962 0.308504,-0.564277 0.674674,-1.095057 1.012011,-1.642585 0.04737,0.0056 0.09579,0.02812 0.142097,0.01671 1.113712,-0.274471 2.186676,-0.923891 3.174187,-1.466807 0.650946,-0.357879 3.136709,-1.776745 3.714281,-2.105617 1.882568,-1.075199 3.751387,-2.174573 5.659747,-3.203957 0.521985,-0.281563 1.800784,-0.974381 2.444779,-1.213926 0.202959,-0.07549 0.421782,-0.09832 0.632673,-0.14748 0.101189,0.09576 0.290693,0.148566 0.303566,0.287288 0.02319,0.249876 -0.08909,0.503019 -0.20981,0.723023 -0.580138,1.057245 -1.210197,2.088342 -1.882302,3.089643 -0.284735,0.424198 -0.652701,0.786173 -0.981655,1.177078 -1.178048,1.399911 -1.216168,1.433188 -2.43911,2.844038 -1.05077,1.251308 -2.172801,2.448195 -3.161369,3.751371 -0.189175,0.249379 -0.673848,1.052231 -0.535168,0.771615 1.042872,-2.110241 1.057793,-1.095144 1.039348,-1.851098 0.111457,-0.07587 0.218135,-0.159292 0.33437,-0.227619 0.242301,-0.142431 0.49746,-0.262151 0.740107,-0.403991 0.723751,-0.423069 1.427095,-0.8804 2.150484,-1.304086 1.166182,-0.683027 1.301928,-0.743074 2.481112,-1.379227 0.426719,-0.2002 3.586913,-1.891783 3.267108,-0.149208 -0.05261,0.286692 -0.224942,0.537814 -0.337412,0.806721 -0.610778,1.025245 -1.181042,2.075737 -1.832332,3.075737 -0.244028,0.374682 -1.610788,1.926937 -1.866767,2.214117 -0.982352,1.102089 -2.00074,2.171926 -2.998762,3.259743 0.451879,-1.064172 -1.375385,1.924989 -1.077672,1.412913 0.372412,-0.640559 0.731322,-1.290909 1.149782,-1.90238 0.02379,-0.03476 0.06974,0.05697 0.111819,0.05887 0.146654,0.0066 0.294112,-0.01095 0.439097,-0.03399 0.249445,-0.03963 0.494651,-0.102446 0.741977,-0.153669 1.102677,-0.300927 2.189853,-0.654546 3.283452,-0.986403 0,0 -0.98276,2.169747 -0.98276,2.169747 l 0,0 c -1.120203,0.358869 -2.233551,0.736895 -3.354029,1.094793 -0.271378,0.06717 -0.537797,0.159132 -0.814135,0.201505 -0.448601,0.06879 -1.06871,0.02405 -0.984845,-0.232204 0.527286,-1.611128 1.272096,-2.686546 2.352588,-3.837347 1.357371,-1.433348 2.731918,-2.856696 3.97449,-4.392937 0.299679,-0.370505 0.397377,-1.183234 0.871294,-1.133392 0.426879,0.04489 -0.361436,0.778671 -0.542154,1.168007 0.121095,-0.224815 0.255842,-0.442795 0.363286,-0.674445 0.05911,-0.127444 0.158313,-0.260838 0.134751,-0.399333 -0.01727,-0.101537 -0.13558,-0.178334 -0.236517,-0.19883 -0.792739,-0.160975 -1.911777,0.526623 -2.590067,0.789209 -1.248308,0.669598 -2.461964,1.368657 -3.653007,2.136516 -0.249458,0.160824 -1.47023,0.987795 -1.828451,1.163243 -0.190298,0.0932 -0.402174,0.13363 -0.603262,0.200445 -0.09551,-0.0748 -0.332272,-0.112034 -0.286545,-0.224406 1.111099,-2.730459 3.183337,-4.64208 5.044039,-6.839387 1.051209,-1.227831 1.462223,-1.688586 2.467781,-2.938176 0.341569,-0.424462 0.476035,-1.169865 1.008241,-1.286463 0.419558,-0.09192 -0.420093,0.761385 -0.51916,1.179314 -0.06094,0.257104 0.502854,-0.567616 0.367796,-0.702194 -0.174892,0.01594 -0.355333,0.0013 -0.524675,0.04781 -0.679549,0.186694 -1.768268,0.729149 -2.332108,1.01204 -1.915072,0.960838 -3.766962,2.040128 -5.616182,3.120252 -1.26134,0.74458 -2.516204,1.500098 -3.777712,2.244393 -0.507581,0.299475 -1.011789,0.605239 -1.529234,0.887328 -0.326717,0.178112 -1.492711,0.838532 -2.028739,0.814869 -0.16817,-0.0074 -0.281835,-0.184159 -0.422752,-0.276238 0.465834,-0.895975 0.89797,-1.810292 1.397502,-2.687926 0.224168,-0.393844 1.400316,-1.817009 1.559626,-2.011247 1.337862,-1.631176 2.709946,-3.234679 4.004875,-4.900852 0.442468,-0.577885 0.893923,-1.148999 1.327404,-1.733655 0.388497,-0.523984 0.677037,-1.130502 1.138202,-1.59182 0.187039,-0.187102 -0.50181,0.89412 -0.286732,0.740067 0.278946,-0.199801 0.344379,-0.593753 0.505441,-0.896722 0.08614,-0.162032 0.207095,-0.316233 0.235737,-0.497489 0.01325,-0.08385 -0.08119,-0.149102 -0.121782,-0.223653 -0.190347,0.0165 -0.386274,8.64e-4 -0.571041,0.0495 -0.639107,0.168221 -1.620746,0.660213 -2.157716,0.944849 -1.611008,0.853958 -3.143227,1.849055 -4.68562,2.817958 -1.532737,1.006867 -3.046212,2.04086 -4.573315,3.055982 -0.347361,0.230904 -1.709939,1.13453 -2.170122,1.362224 -0.233093,0.115332 -0.489417,0.176086 -0.734126,0.264129 -0.150669,-0.0639 -0.374986,-0.04729 -0.452006,-0.19169 -0.08286,-0.155353 -0.0065,-0.365156 0.07056,-0.523474 0.483141,-0.992794 1.042157,-1.947337 1.596531,-2.902185 0.852796,-1.468849 2.002008,-2.747353 2.97437,-4.132028 1.262937,-1.66635 2.546286,-3.322209 3.755334,-5.028557 0.316068,-0.446073 0.459194,-1.066834 0.923573,-1.355334 0.35755,-0.222132 -0.384376,0.749223 -0.562131,1.130784 -0.09555,0.205103 0.210247,-0.400732 0.31537,-0.601097 0.07387,-0.269653 0.212869,-0.401229 -0.243513,-0.377327 -0.442945,0.0232 -1.275474,0.344385 -1.619708,0.484046 -0.938697,0.380845 -1.634056,0.745227 -2.553211,1.19699 -1.47538,0.747661 -2.933725,1.524423 -4.399337,2.290836 -0.791065,0.413672 -1.70006,0.898832 -2.529159,1.248386 -0.333675,0.14068 -0.679578,0.250387 -1.019367,0.375581 -0.479634,0.104151 -0.961266,0.289676 -1.460153,0.133159 -0.979093,-0.307171 -0.476559,-1.572979 -0.279106,-2.205618 1.150931,-2.907639 2.728113,-5.623385 4.354212,-8.288429 0.650727,-0.989028 1.305201,-2.070085 2.289986,-2.764181 0,0 -1.074489,2.477835 -1.074489,2.477835 z"
       inkscape:connector-curvature="0" />
  </g>
</svg>
