<?xml version="1.0" encoding="UTF-8" standalone="no"?>
<!-- Created with Inkscape (http://www.inkscape.org/) -->

<svg
   xmlns:dc="http://purl.org/dc/elements/1.1/"
   xmlns:cc="http://creativecommons.org/ns#"
   xmlns:rdf="http://www.w3.org/1999/02/22-rdf-syntax-ns#"
   xmlns:svg="http://www.w3.org/2000/svg"
   xmlns="http://www.w3.org/2000/svg"
   xmlns:xlink="http://www.w3.org/1999/xlink"
   xmlns:sodipodi="http://sodipodi.sourceforge.net/DTD/sodipodi-0.dtd"
   xmlns:inkscape="http://www.inkscape.org/namespaces/inkscape"
   id="svg3916"
   height="32px"
   width="32px"
   version="1.1"
   inkscape:version="0.48.3.1 r9886"
   sodipodi:docname="package_settings_Gear.svg"
   inkscape:export-filename="/home/patrick/NetBeansProjects/SFX/lib/res/document-properties.png"
   inkscape:export-xdpi="90"
   inkscape:export-ydpi="90">
  <sodipodi:namedview
     pagecolor="#ffffff"
     bordercolor="#666666"
     borderopacity="1"
     objecttolerance="10"
     gridtolerance="10"
     guidetolerance="10"
     inkscape:pageopacity="0"
     inkscape:pageshadow="2"
     inkscape:window-width="1366"
     inkscape:window-height="717"
     id="namedview4396"
     showgrid="false"
     inkscape:zoom="7.375"
     inkscape:cx="16"
     inkscape:cy="26.847458"
     inkscape:window-x="0"
     inkscape:window-y="0"
     inkscape:window-maximized="1"
     inkscape:current-layer="layer1" />
  <defs
     id="defs3918">
    <linearGradient
       id="linearGradient3051"
       y2="44.14"
       gradientUnits="userSpaceOnUse"
       x2="-9.7747"
       gradientTransform="matrix(-.28354 -.28352 -.48112 .48110 29.028 -1.5639)"
       y1="44.229"
       x1="-6.3078">
      <stop
         id="stop6223"
         offset="0" />
      <stop
         id="stop6225"
         style="stop-opacity:0"
         offset="1" />
    </linearGradient>
    <linearGradient
       id="linearGradient3054"
       y2="35.079"
       gradientUnits="userSpaceOnUse"
       x2="90.221"
       gradientTransform="matrix(-.50611 -.50534 -.44267 0.442 74.844 52.271)"
       y1="35.152"
       x1="97.442">
      <stop
         id="stop4958"
         style="stop-color:#f8b17e"
         offset="0" />
      <stop
         id="stop4960"
         style="stop-color:#e35d4f"
         offset=".26238" />
      <stop
         id="stop4962"
         style="stop-color:#c6262e"
         offset=".66347" />
      <stop
         id="stop4964"
         style="stop-color:#690b54"
         offset="1" />
    </linearGradient>
    <linearGradient
       id="linearGradient3056"
       y2="27.273"
       gradientUnits="userSpaceOnUse"
       x2="36.001"
       gradientTransform="matrix(-.61515 0 0 .61463 30.49 2.1493)"
       y1="34.023"
       x1="29.278">
      <stop
         id="stop2492"
         style="stop-color:#791235"
         offset="0" />
      <stop
         id="stop2494"
         style="stop-color:#dd3b27"
         offset="1" />
    </linearGradient>
    <linearGradient
       id="linearGradient3060"
       y2="88.006"
       gradientUnits="userSpaceOnUse"
       x2="317.16"
       gradientTransform="matrix(-.83846 0 0 .83694 278.9 -39.62)"
       y1="75.575"
       x1="326.6">
      <stop
         id="stop7423-0"
         style="stop-color:#fff"
         offset="0" />
      <stop
         id="stop7425-2"
         style="stop-color:#fff;stop-opacity:0"
         offset="1" />
    </linearGradient>
    <linearGradient
       id="linearGradient3063"
       y2="60.768"
       gradientUnits="userSpaceOnUse"
       x2="308.65"
       gradientTransform="matrix(-.83846 0 0 .83694 278.9 -39.62)"
       y1="58.443"
       x1="302.29">
      <stop
         id="stop7383"
         style="stop-color:#babdb6"
         offset="0" />
      <stop
         id="stop7385"
         style="stop-color:#fff"
         offset="1" />
    </linearGradient>
    <linearGradient
       id="linearGradient3066"
       y2="81.926"
       gradientUnits="userSpaceOnUse"
       x2="335.3"
       gradientTransform="matrix(-.83846 0 0 .83694 279.07 -39.767)"
       y1="64.295"
       x1="304.76">
      <stop
         id="stop4436"
         style="stop-color:#d3d7cf"
         offset="0" />
      <stop
         id="stop4438"
         style="stop-color:#babdb6"
         offset=".18304" />
      <stop
         id="stop4440"
         style="stop-color:#fff"
         offset=".31893" />
      <stop
         id="stop4442"
         style="stop-color:#babdb6"
         offset=".87644" />
      <stop
         id="stop4444"
         style="stop-color:#eeeeec"
         offset="1" />
    </linearGradient>
    <linearGradient
       id="linearGradient3068"
       y2="58.612"
       gradientUnits="userSpaceOnUse"
       x2="305.67"
       gradientTransform="matrix(-.83846 0 0 .83694 279.07 -39.767)"
       y1="52.787"
       x1="301.32">
      <stop
         id="stop7446"
         style="stop-color:#888a85"
         offset="0" />
      <stop
         id="stop7448"
         style="stop-color:#555753"
         offset="1" />
    </linearGradient>
    <radialGradient
       id="radialGradient2538"
       gradientUnits="userSpaceOnUse"
       cy="73.616"
       cx="6.7027"
       gradientTransform="matrix(2.2135 0 0 .48420 1.1638 -7.1447)"
       r="7.2284">
      <stop
         id="stop10693"
         offset="0" />
      <stop
         id="stop10695"
         style="stop-opacity:0"
         offset="1" />
    </radialGradient>
    <linearGradient
       id="linearGradient3326"
       y2="47.012"
       gradientUnits="userSpaceOnUse"
       x2="32.036"
       gradientTransform="translate(-15,-17)"
       y1="19"
       x1="32.036">
      <stop
         id="stop3311"
         style="stop-color:#f6f6f6"
         offset="0" />
      <stop
         id="stop3313"
         style="stop-color:#d2d2d2"
         offset="1" />
    </linearGradient>
    <linearGradient
       id="linearGradient3328"
       y2="47.045"
       gradientUnits="userSpaceOnUse"
       x2="25.923"
       gradientTransform="translate(-15,-17)"
       y1="19"
       x1="25.923">
      <stop
         id="stop3399"
         style="stop-color:#aaa"
         offset="0" />
      <stop
         id="stop3401"
         style="stop-color:#8c8c8c"
         offset="1" />
    </linearGradient>
    <linearGradient
       id="linearGradient3914"
       y2="20.895"
       gradientUnits="userSpaceOnUse"
       y1="105.1"
       gradientTransform="matrix(0.2014,0,0,0.2014,3.1103,3.3117)"
       x2="84.639"
       x1="86.133">
      <stop
         id="stop5130"
         style="stop-color:#fff"
         offset="0" />
      <stop
         id="stop5132"
         style="stop-color:#959595"
         offset="1" />
    </linearGradient>
    <linearGradient
       inkscape:collect="always"
       xlink:href="#linearGradient3914"
       id="linearGradient4418"
       gradientUnits="userSpaceOnUse"
       gradientTransform="matrix(0.2014,0,0,0.2014,3.1103,3.3117)"
       x1="86.133"
       y1="105.1"
       x2="84.639"
       y2="20.895" />
    <linearGradient
       inkscape:collect="always"
       xlink:href="#linearGradient3326"
       id="linearGradient4422"
       gradientUnits="userSpaceOnUse"
       gradientTransform="translate(-15,-17)"
       x1="32.036"
       y1="19"
       x2="32.036"
       y2="47.012" />
    <linearGradient
       inkscape:collect="always"
       xlink:href="#linearGradient3328"
       id="linearGradient4424"
       gradientUnits="userSpaceOnUse"
       gradientTransform="translate(-15,-17)"
       x1="25.923"
       y1="19"
       x2="25.923"
       y2="47.045" />
  </defs>
  <metadata
     id="metadata3921">
    <rdf:RDF>
      <cc:Work
         rdf:about="">
        <dc:format>image/svg+xml</dc:format>
        <dc:type
           rdf:resource="http://purl.org/dc/dcmitype/StillImage" />
        <dc:title></dc:title>
      </cc:Work>
    </rdf:RDF>
  </metadata>
  <g
     id="layer1">
    <path
       inkscape:connector-curvature="0"
       d="M 13.875,2.5 C 13.12626,2.5 12.5,3.09501 12.5,3.8438 v 1.75 C 12.0266,5.75268 11.56725,5.93721 11.125,6.1563 L 9.9062,4.9375 C 9.37676,4.40806 8.5294,4.40806 7.9999,4.9375 L 4.9374,7.9687 c -0.52944,0.52944 -0.52944,1.3768 0,1.9062 l 1.2188,1.2188 C 5.93187,11.54363 5.75557,12.01763 5.5937,12.4999 H 3.8749 c -0.74874,0 -1.375,0.59501 -1.375,1.3438 v 4.3125 c -10e-7,0.74874 0.62626,1.3438 1.375,1.3438 h 1.7188 c 0.16187,0.48232 0.33817,0.95632 0.5625,1.4062 L 4.9374,22.125 c -0.52944,0.52944 -0.52944,1.3768 0,1.9062 l 3.0625,3.0312 c 0.52944,0.52944 1.3768,0.52944 1.9063,0 l 1.2188,-1.2188 c 0.44225,0.21909 0.9016,0.40362 1.375,0.5625 v 1.75 c -10e-7,0.74874 0.62627,1.3438 1.375,1.3438 h 4.2812 c 0.74874,0 1.3438,-0.59501 1.3438,-1.3438 v -1.75 c 0.48232,-0.16187 0.95632,-0.33817 1.4062,-0.5625 l 1.219,1.218 c 0.52944,0.52944 1.3768,0.52944 1.9062,0 l 3.0625,-3.0312 c 0.52944,-0.52944 0.52943,-1.3768 0,-1.9062 l -1.25,-1.25 c 0.21909,-0.44225 0.40362,-0.9016 0.5625,-1.375 h 1.75 c 0.749,0 1.344,-0.595 1.344,-1.344 v -4.3125 c 0,-0.749 -0.595,-1.344 -1.344,-1.344 h -1.75 c -0.15888,-0.4734 -0.34341,-0.93275 -0.5625,-1.375 l 1.25,-1.25 c 0.52944,-0.52944 0.52944,-1.3768 0,-1.9062 L 24.0314,4.9363 c -0.52944,-0.52944 -1.3768,-0.52944 -1.9062,0 L 20.9065,6.1551 C 20.45657,5.93077 19.98257,5.75447 19.5003,5.5926 v -1.75 C 19.4993,3.0937 18.9043,2.4987 18.1553,2.4987 H 13.8741 z M 16,12.5 c 1.932,0 3.5,1.568 3.5,3.5 0,1.932 -1.568,3.5 -3.5,3.5 -1.932,0 -3.5,-1.568 -3.5,-3.5 -10e-7,-1.932 1.568,-3.5 3.5,-3.5 z"
       style="fill:url(#linearGradient4422);stroke:url(#linearGradient4424);stroke-linejoin:round;display:block"
       id="rect2576" />
  </g>
</svg>
